<svg width="24" height="24" viewBox="0 0 256 256" fill="none" xmlns="http://www.w3.org/2000/svg">
	<path
		d="M214.83,210.83a4,4,0,0,1-5.66,0L160,161.65V200a4,4,0,0,1-8,0V152a4,4,0,0,1,4-4h48a4,4,0,0,1,0,8H165.66l49.17,49.17A4,4,0,0,1,214.83,210.83ZM100,148H52a4,4,0,0,0,0,8H90.34L41.17,205.17a4,4,0,1,0,5.66,5.66L96,161.65V200a4,4,0,0,0,8,0V152A4,4,0,0,0,100,148Zm100-40H161.66l49.17-49.17a4,4,0,0,0-5.66-5.66L156,102.34V64a4,4,0,0,0-8,0v48a4,4,0,0,0,4,4h48a4,4,0,0,0,0-8ZM100,60a4,4,0,0,0-4,4v38.34L46.83,53.17a4,4,0,0,0-5.66,5.66L90.34,108H52a4,4,0,0,0,0,8h48a4,4,0,0,0,4-4V64A4,4,0,0,0,100,60Z"
		fill="currentColor"
	/>
</svg>
