<svg width="18" height="18" viewBox="11 11 18 18" fill="none" xmlns="http://www.w3.org/2000/svg">
<path d="M28.031 13.031L23.3107 17.7504H26.0004C26.1993 17.7504 26.3901 17.8294 26.5307 17.9701C26.6714 18.1107 26.7504 18.3015 26.7504 18.5004C26.7504 18.6993 26.6714 18.8901 26.5307 19.0307C26.3901 19.1714 26.1993 19.2504 26.0004 19.2504H21.5004C21.3015 19.2504 21.1107 19.1714 20.9701 19.0307C20.8294 18.8901 20.7504 18.6993 20.7504 18.5004V14.0004C20.7504 13.8015 20.8294 13.6107 20.9701 13.4701C21.1107 13.3294 21.3015 13.2504 21.5004 13.2504C21.6993 13.2504 21.8901 13.3294 22.0307 13.4701C22.1714 13.6107 22.2504 13.8015 22.2504 14.0004V16.6901L26.9698 11.9698C27.1105 11.8291 27.3014 11.75 27.5004 11.75C27.6994 11.75 27.8903 11.8291 28.031 11.9698C28.1718 12.1105 28.2508 12.3014 28.2508 12.5004C28.2508 12.6994 28.1718 12.8903 28.031 13.031ZM18.5004 20.7504H14.0004C13.8015 20.7504 13.6107 20.8294 13.4701 20.9701C13.3294 21.1107 13.2504 21.3015 13.2504 21.5004C13.2504 21.6993 13.3294 21.8901 13.4701 22.0307C13.6107 22.1714 13.8015 22.2504 14.0004 22.2504H16.6901L11.9698 26.9698C11.8291 27.1105 11.75 27.3014 11.75 27.5004C11.75 27.6994 11.8291 27.8903 11.9698 28.031C12.1105 28.1718 12.3014 28.2508 12.5004 28.2508C12.6994 28.2508 12.8903 28.1718 13.031 28.031L17.7504 23.3107V26.0004C17.7504 26.1993 17.8294 26.3901 17.9701 26.5307C18.1107 26.6714 18.3015 26.7504 18.5004 26.7504C18.6993 26.7504 18.8901 26.6714 19.0307 26.5307C19.1714 26.3901 19.2504 26.1993 19.2504 26.0004V21.5004C19.2504 21.3015 19.1714 21.1107 19.0307 20.9701C18.8901 20.8294 18.6993 20.7504 18.5004 20.7504Z" fill="currentColor"/>
</svg>
