<svg width="18" height="18" viewBox="0 0 18 18" fill="none" xmlns="http://www.w3.org/2000/svg">
<path d="M3.375 3.375H6.75C7.59688 3.375 8.38406 3.63281 9 4.07461C9.61594 3.63281 10.4031 3.375 11.25 3.375H14.625C15.2463 3.375 15.75 3.87868 15.75 4.5V14.25C15.75 14.6642 15.4142 15 15 15H11.25C10.5188 15 9.93281 15.1688 9.49219 15.5062C9.20391 15.727 8.79609 15.727 8.50781 15.5062C8.06719 15.1688 7.48125 15 6.75 15H3C2.58579 15 2.25 14.6642 2.25 14.25V4.5C2.25 3.87868 2.75368 3.375 3.375 3.375ZM8.25 13.6406V5.48438C7.87031 5.10469 7.33125 4.875 6.75 4.875H3.75V13.5H6.75C7.29844 13.5 7.79844 13.5469 8.25 13.6406ZM9.75 13.6406C10.2016 13.5469 10.7016 13.5 11.25 13.5H14.25V4.875H11.25C10.6687 4.875 10.1297 5.10469 9.75 5.48438V13.6406Z" fill="currentColor"/>
</svg>
