<svg width="11" height="15" viewBox="0 0 11 15" fill="none" xmlns="http://www.w3.org/2000/svg">
<path d="M9 0H1.125C0.826631 0 0.540483 0.118526 0.329505 0.329505C0.118526 0.540483 0 0.826631 0 1.125V13.5C4.99481e-05 13.6004 0.0269632 13.6989 0.0779469 13.7854C0.128931 13.8719 0.202127 13.9431 0.28994 13.9918C0.377754 14.0404 0.476984 14.0647 0.577335 14.062C0.677685 14.0594 0.775498 14.0299 0.860625 13.9767L5.0625 11.3505L9.26508 13.9767C9.35019 14.0297 9.44793 14.059 9.54818 14.0616C9.64842 14.0642 9.74753 14.0399 9.83523 13.9912C9.92293 13.9426 9.99604 13.8714 10.047 13.7851C10.0979 13.6987 10.1249 13.6003 10.125 13.5V1.125C10.125 0.826631 10.0065 0.540483 9.7955 0.329505C9.58452 0.118526 9.29837 0 9 0ZM5.35992 10.2108C5.27052 10.1549 5.16722 10.1253 5.0618 10.1253C4.95637 10.1253 4.85307 10.1549 4.76367 10.2108L1.125 12.4854V10.4365L5.0625 7.97555L9 10.4365V12.4854L5.35992 10.2108Z" fill="currentColor"/>
</svg>
