<svg width="16" height="14" viewBox="0 0 16 14" fill="none" xmlns="http://www.w3.org/2000/svg">
<path d="M15.75 0.5625V10.6875C15.75 10.8367 15.6907 10.9798 15.5852 11.0852C15.4798 11.1907 15.3367 11.25 15.1875 11.25H10.125C9.67818 11.25 9.24959 11.4272 8.93325 11.7428C8.6169 12.0583 8.43862 12.4865 8.4375 12.9333C8.43975 13.0481 8.40634 13.1609 8.34187 13.2559C8.27739 13.351 8.18503 13.4237 8.0775 13.4641C7.99214 13.4971 7.90003 13.5087 7.80916 13.498C7.71829 13.4873 7.6314 13.4546 7.55604 13.4027C7.48067 13.3508 7.4191 13.2813 7.37666 13.2003C7.33422 13.1192 7.3122 13.029 7.3125 12.9375C7.3125 12.4899 7.13471 12.0607 6.81824 11.7443C6.50178 11.4278 6.07255 11.25 5.625 11.25H0.5625C0.413316 11.25 0.270242 11.1907 0.164752 11.0852C0.0592632 10.9798 0 10.8367 0 10.6875V0.5625C0 0.413316 0.0592632 0.270242 0.164752 0.164753C0.270242 0.0592633 0.413316 0 0.5625 0H5.0625C5.65924 0 6.23153 0.237053 6.65349 0.65901C7.07545 1.08097 7.3125 1.65326 7.3125 2.25V8.41852C7.31055 8.56368 7.36363 8.7042 7.46107 8.81182C7.55851 8.91944 7.69309 8.98617 7.83773 8.99859C7.91468 9.0037 7.99185 8.99294 8.06446 8.96696C8.13706 8.94099 8.20355 8.90037 8.2598 8.84762C8.31604 8.79487 8.36084 8.73112 8.39141 8.66032C8.42198 8.58953 8.43767 8.51321 8.4375 8.43609V2.25C8.4375 1.65326 8.67455 1.08097 9.09651 0.65901C9.51847 0.237053 10.0908 0 10.6875 0H15.1875C15.3367 0 15.4798 0.0592633 15.5852 0.164753C15.6907 0.270242 15.75 0.413316 15.75 0.5625Z" fill="currentColor"/>
</svg>
