<svg xmlns="http://www.w3.org/2000/svg" viewBox="0 0 161 161" fill="none">
<path fill="#ED7C30" d="M100.198,78.169L69.69,62.775c-1.866-1.026-4.199,0.373-4.199,2.519v30.881c0,2.146,2.333,3.545,4.199,2.518l30.508-15.485C102.157,82.087,102.157,79.289,100.198,78.169"/>
<path fill="currentColor" d="M80.453,38.702c8.896,0,17.153,2.778,23.953,7.513c4.656,3.241,10.8,3.376,15.581,0.32c-9.597-11.078-23.761-18.098-39.534-18.098c-23.163,0-42.854,15.139-49.707,36.04c7.176-2.227,13.55-6.421,18.603-11.983C57.043,44.025,68.138,38.702,80.453,38.702"/>
<path fill="currentColor" d="M119.026,114.321c-4.299-2.747-9.824-2.533-13.954,0.462c-6.924,5.021-15.431,7.985-24.619,7.985c-12.316,0-23.41-5.324-31.105-13.793c-5.052-5.561-11.426-9.756-18.602-11.982c6.853,20.901,26.544,36.04,49.707,36.04c15.773,0,29.937-7.02,39.534-18.098L119.026,114.321z"/>
<path fill="currentColor" d="M80.453,10.264c18.813,0,35.925,7.412,48.575,19.468c4.083,3.89,10.322,4.429,15.074,1.392C129.314,12.194,106.282,0,80.453,0C38.199,0,3.426,32.631,0,74.017l0.161-0.05C6.303,72.061,11,67.157,12.805,60.984C21.365,31.709,48.45,10.264,80.453,10.264"/>
<path fill="currentColor" d="M144.103,130.345c-4.752-3.037-10.992-2.498-15.075,1.393c-12.65,12.056-29.762,19.468-48.574,19.468c-32.003,0-59.088-21.445-67.648-50.72C11,94.313,6.304,89.408,0.161,87.502L0,87.453c3.426,41.386,38.198,74.017,80.453,74.017C106.282,161.469,129.314,149.276,144.103,130.345"/>
</svg>
