<svg width="18" height="18" viewBox="0 0 18 18" fill="none" xmlns="http://www.w3.org/2000/svg">
<path d="M5.625 2.25C3.76104 2.25 2.25 3.76104 2.25 5.625V12.375C2.25 14.239 3.76104 15.75 5.625 15.75H12.375C14.239 15.75 15.75 14.239 15.75 12.375V5.625C15.75 3.76104 14.239 2.25 12.375 2.25H5.625ZM5.625 3.75H12.375C13.4105 3.75 14.25 4.58947 14.25 5.625V12.375C14.25 13.4105 13.4105 14.25 12.375 14.25H5.625C4.58947 14.25 3.75 13.4105 3.75 12.375V5.625C3.75 4.58947 4.58947 3.75 5.625 3.75Z" fill="currentColor"/>
<path d="M6 6.375C6.62132 6.375 7.125 5.87132 7.125 5.25C7.125 4.62868 6.62132 4.125 6 4.125C5.37868 4.125 4.875 4.62868 4.875 5.25C4.875 5.87132 5.37868 6.375 6 6.375Z" fill="currentColor"/>
<path d="M12 6.375C12.6213 6.375 13.125 5.87132 13.125 5.25C13.125 4.62868 12.6213 4.125 12 4.125C11.3787 4.125 10.875 4.62868 10.875 5.25C10.875 5.87132 11.3787 6.375 12 6.375Z" fill="currentColor"/>
<path d="M6 13.875C6.62132 13.875 7.125 13.3713 7.125 12.75C7.125 12.1287 6.62132 11.625 6 11.625C5.37868 11.625 4.875 12.1287 4.875 12.75C4.875 13.3713 5.37868 13.875 6 13.875Z" fill="currentColor"/>
<path d="M12 13.875C12.6213 13.875 13.125 13.3713 13.125 12.75C13.125 12.1287 12.6213 11.625 12 11.625C11.3787 11.625 10.875 12.1287 10.875 12.75C10.875 13.3713 11.3787 13.875 12 13.875Z" fill="currentColor"/>
<path d="M6 8.25H12V9.75H6V8.25Z" fill="currentColor"/>
</svg>
