<svg width="24" height="24" viewBox="0 0 24 24" fill="none" xmlns="http://www.w3.org/2000/svg">
<g transform="translate(-1825.5,-31.5)">
<path fill="currentColor" d="M1844.83 48.7453c-0.44-0.7469-1.08-2.86-1.08-5.6203 0-1.6576-0.66-3.2473-1.83-4.4194-1.17-1.1721-2.76-1.8306-4.42-1.8306-1.66 0-3.25 0.6585-4.42 1.8306-1.17 1.1721-1.83 2.7618-1.83 4.4194 0 2.7609-0.65 4.8734-1.08 5.6203-0.11 0.1899-0.17 0.4056-0.17 0.6254 0 0.2198 0.06 0.4359 0.17 0.6266 0.11 0.1906 0.26 0.349 0.45 0.4592 0.19 0.1102 0.41 0.1683 0.62 0.1685h3.19c0.14 0.7056 0.53 1.3397 1.08 1.7951 0.56 0.4555 1.26 0.7042 1.98 0.7042s1.42-0.2487 1.98-0.7042c0.55-0.4554 0.94-1.0895 1.08-1.7951h3.19c0.22-0.0003 0.43-0.0585 0.62-0.1688 0.19-0.1102 0.35-0.2687 0.46-0.4593 0.11-0.1906 0.17-0.4066 0.17-0.6264 0-0.2197-0.06-0.4354-0.17-0.6252ZM1837.5 51.875c-0.39-0.0001-0.77-0.1204-1.08-0.3442-0.32-0.2239-0.56-0.5403-0.69-0.9058h3.54c-0.13 0.3655-0.37 0.6819-0.69 0.9058-0.31 0.2238-0.69 0.3441-1.08 0.3442Z"/>
</g>
</svg>
