<svg width="18" height="18" viewBox="0 0 18 18" fill="none" xmlns="http://www.w3.org/2000/svg">
<path d="M9 1.6875C7.55373 1.6875 6.13993 2.11637 4.9374 2.91988C3.73486 3.72339 2.7976 4.86544 2.24413 6.20163C1.69067 7.53781 1.54586 9.00811 1.82801 10.4266C2.11017 11.8451 2.80661 13.148 3.82928 14.1707C4.85196 15.1934 6.15492 15.8898 7.57341 16.172C8.99189 16.4541 10.4622 16.3093 11.7984 15.7559C13.1346 15.2024 14.2766 14.2651 15.0801 13.0626C15.8836 11.8601 16.3125 10.4463 16.3125 9C16.3101 7.06135 15.5389 5.20279 14.1681 3.83195C12.7972 2.46112 10.9387 1.68992 9 1.6875ZM7.875 11.25C7.875 11.3992 7.81574 11.5423 7.71025 11.6477C7.60476 11.7532 7.46169 11.8125 7.3125 11.8125C7.16332 11.8125 7.02025 11.7532 6.91476 11.6477C6.80927 11.5423 6.75 11.3992 6.75 11.25V6.75C6.75 6.60082 6.80927 6.45774 6.91476 6.35225C7.02025 6.24676 7.16332 6.1875 7.3125 6.1875C7.46169 6.1875 7.60476 6.24676 7.71025 6.35225C7.81574 6.45774 7.875 6.60082 7.875 6.75V11.25ZM11.25 11.25C11.25 11.3992 11.1907 11.5423 11.0853 11.6477C10.9798 11.7532 10.8367 11.8125 10.6875 11.8125C10.5383 11.8125 10.3952 11.7532 10.2898 11.6477C10.1843 11.5423 10.125 11.3992 10.125 11.25V6.75C10.125 6.60082 10.1843 6.45774 10.2898 6.35225C10.3952 6.24676 10.5383 6.1875 10.6875 6.1875C10.8367 6.1875 10.9798 6.24676 11.0853 6.35225C11.1907 6.45774 11.25 6.60082 11.25 6.75V11.25Z" fill="#D97706"/>
</svg>
