<svg width="21" height="21" viewBox="0 0 21 21" fill="none" xmlns="http://www.w3.org/2000/svg">
<path d="M16.4062 2.625H13.125C12.7769 2.625 12.4431 2.76328 12.1969 3.00942C11.9508 3.25556 11.8125 3.5894 11.8125 3.9375V17.0625C11.8125 17.4106 11.9508 17.7444 12.1969 17.9906C12.4431 18.2367 12.7769 18.375 13.125 18.375H16.4062C16.7543 18.375 17.0882 18.2367 17.3343 17.9906C17.5805 17.7444 17.7188 17.4106 17.7188 17.0625V3.9375C17.7188 3.5894 17.5805 3.25556 17.3343 3.00942C17.0882 2.76328 16.7543 2.625 16.4062 2.625ZM16.4062 17.0625H13.125V3.9375H16.4062V17.0625ZM7.875 2.625H4.59375C4.24565 2.625 3.91181 2.76328 3.66567 3.00942C3.41953 3.25556 3.28125 3.5894 3.28125 3.9375V17.0625C3.28125 17.4106 3.41953 17.7444 3.66567 17.9906C3.91181 18.2367 4.24565 18.375 4.59375 18.375H7.875C8.2231 18.375 8.55694 18.2367 8.80308 17.9906C9.04922 17.7444 9.1875 17.4106 9.1875 17.0625V3.9375C9.1875 3.5894 9.04922 3.25556 8.80308 3.00942C8.55694 2.76328 8.2231 2.625 7.875 2.625ZM7.875 17.0625H4.59375V3.9375H7.875V17.0625Z" fill="currentColor"/>
</svg>
