<svg viewBox="0 0 45 45" fill="none" xmlns="http://www.w3.org/2000/svg">
<path d="M32.5 10.5H12.5C11.9696 10.5 11.4609 10.7107 11.0858 11.0858C10.7107 11.4609 10.5 11.9696 10.5 12.5V32.5C10.5 33.0304 10.7107 33.5391 11.0858 33.9142C11.4609 34.2893 11.9696 34.5 12.5 34.5H32.5C33.0304 34.5 33.5391 34.2893 33.9142 33.9142C34.2893 33.5391 34.5 33.0304 34.5 32.5V12.5C34.5 11.9696 34.2893 11.4609 33.9142 11.0858C33.5391 10.7107 33.0304 10.5 32.5 10.5ZM14.5 15.5H30.5C30.7652 15.5 31.0196 15.6054 31.2071 15.7929C31.3946 15.9804 31.5 16.2348 31.5 16.5C31.5 16.7652 31.3946 17.0196 31.2071 17.2071C31.0196 17.3946 30.7652 17.5 30.5 17.5H14.5C14.2348 17.5 13.9804 17.3946 13.7929 17.2071C13.6054 17.0196 13.5 16.7652 13.5 16.5C13.5 16.2348 13.6054 15.9804 13.7929 15.7929C13.9804 15.6054 14.2348 15.5 14.5 15.5ZM19.5 29.5H14.5C14.2348 29.5 13.9804 29.3946 13.7929 29.2071C13.6054 29.0196 13.5 28.7652 13.5 28.5C13.5 28.2348 13.6054 27.9804 13.7929 27.7929C13.9804 27.6054 14.2348 27.5 14.5 27.5H19.5C19.7652 27.5 20.0196 27.6054 20.2071 27.7929C20.3946 27.9804 20.5 28.2348 20.5 28.5C20.5 28.7652 20.3946 29.0196 20.2071 29.2071C20.0196 29.3946 19.7652 29.5 19.5 29.5ZM19.5 23.5H14.5C14.2348 23.5 13.9804 23.3946 13.7929 23.2071C13.6054 23.0196 13.5 22.7652 13.5 22.5C13.5 22.2348 13.6054 21.9804 13.7929 21.7929C13.9804 21.6054 14.2348 21.5 14.5 21.5H19.5C19.7652 21.5 20.0196 21.6054 20.2071 21.7929C20.3946 21.9804 20.5 22.2348 20.5 22.5C20.5 22.7652 20.3946 23.0196 20.2071 23.2071C20.0196 23.3946 19.7652 23.5 19.5 23.5ZM31.055 26.3325L25.055 30.3325C24.8906 30.4419 24.6975 30.5002 24.5 30.5C24.2348 30.5 23.9804 30.3946 23.7929 30.2071C23.6054 30.0196 23.5 29.7652 23.5 29.5V21.5C23.4999 21.3189 23.5489 21.1412 23.6419 20.9858C23.7349 20.8304 23.8684 20.7032 24.028 20.6177C24.1877 20.5323 24.3675 20.4918 24.5484 20.5005C24.7293 20.5093 24.9044 20.567 25.055 20.6675L31.055 24.6675C31.1922 24.7588 31.3047 24.8825 31.3825 25.0278C31.4603 25.173 31.501 25.3352 31.501 25.5C31.501 25.6648 31.4603 25.827 31.3825 25.9722C31.3047 26.1175 31.1922 26.2412 31.055 26.3325Z" fill="currentColor"/>
</svg>
