<svg width="26" height="26" viewBox="0 0 26 26" fill="none" xmlns="http://www.w3.org/2000/svg">
	<path d="M20.8638 10.9766C20.5608 10.66 20.2474 10.3337 20.1293 10.0469C20.02 9.78411 20.0136 9.34857 20.0071 8.9267C19.9951 8.14241 19.9822 7.25366 19.3643 6.63571C18.7463 6.01777 17.8576 6.00491 17.0733 5.99286C16.6514 5.98643 16.2159 5.98 15.9531 5.87071C15.6671 5.75259 15.34 5.4392 15.0234 5.13625C14.4689 4.60348 13.8389 4 13 4C12.1611 4 11.5319 4.60348 10.9766 5.13625C10.66 5.4392 10.3337 5.75259 10.0469 5.87071C9.78571 5.98 9.34857 5.98643 8.9267 5.99286C8.14241 6.00491 7.25366 6.01777 6.63571 6.63571C6.01777 7.25366 6.00893 8.14241 5.99286 8.9267C5.98643 9.34857 5.98 9.78411 5.87071 10.0469C5.75259 10.3329 5.4392 10.66 5.13625 10.9766C4.60348 11.5311 4 12.1611 4 13C4 13.8389 4.60348 14.4681 5.13625 15.0234C5.4392 15.34 5.75259 15.6663 5.87071 15.9531C5.98 16.2159 5.98643 16.6514 5.99286 17.0733C6.00491 17.8576 6.01777 18.7463 6.63571 19.3643C7.25366 19.9822 8.14241 19.9951 8.9267 20.0071C9.34857 20.0136 9.78411 20.02 10.0469 20.1293C10.3329 20.2474 10.66 20.5608 10.9766 20.8638C11.5311 21.3965 12.1611 22 13 22C13.8389 22 14.4681 21.3965 15.0234 20.8638C15.34 20.5608 15.6663 20.2474 15.9531 20.1293C16.2159 20.02 16.6514 20.0136 17.0733 20.0071C17.8576 19.9951 18.7463 19.9822 19.3643 19.3643C19.9822 18.7463 19.9951 17.8576 20.0071 17.0733C20.0136 16.6514 20.02 16.2159 20.1293 15.9531C20.2474 15.6671 20.5608 15.34 20.8638 15.0234C21.3965 14.4689 22 13.8389 22 13C22 12.1611 21.3965 11.5319 20.8638 10.9766ZM19.9356 14.1338C19.5507 14.5356 19.1521 14.9511 18.9408 15.4613C18.7383 15.9515 18.7295 16.5116 18.7214 17.054C18.7134 17.6165 18.7046 18.2055 18.4546 18.4546C18.2047 18.7038 17.6197 18.7134 17.054 18.7214C16.5116 18.7295 15.9515 18.7383 15.4613 18.9408C14.9511 19.1521 14.5356 19.5507 14.1338 19.9356C13.7321 20.3205 13.3214 20.7143 13 20.7143C12.6786 20.7143 12.2647 20.3189 11.8662 19.9356C11.4676 19.5523 11.0489 19.1521 10.5387 18.9408C10.0485 18.7383 9.48839 18.7295 8.94598 18.7214C8.38348 18.7134 7.79446 18.7046 7.54536 18.4546C7.29625 18.2047 7.28661 17.6197 7.27857 17.054C7.27054 16.5116 7.2617 15.9515 7.0592 15.4613C6.84786 14.9511 6.44929 14.5356 6.06437 14.1338C5.67946 13.7321 5.28571 13.3214 5.28571 13C5.28571 12.6786 5.68107 12.2647 6.06437 11.8662C6.44768 11.4676 6.84786 11.0489 7.0592 10.5387C7.2617 10.0485 7.27054 9.48839 7.27857 8.94598C7.28661 8.38348 7.29545 7.79446 7.54536 7.54536C7.79527 7.29625 8.38027 7.28661 8.94598 7.27857C9.48839 7.27054 10.0485 7.2617 10.5387 7.0592C11.0489 6.84786 11.4644 6.44929 11.8662 6.06437C12.2679 5.67946 12.6786 5.28571 13 5.28571C13.3214 5.28571 13.7353 5.68107 14.1338 6.06437C14.5324 6.44768 14.9511 6.84786 15.4613 7.0592C15.9515 7.2617 16.5116 7.27054 17.054 7.27857C17.6165 7.28661 18.2055 7.29545 18.4546 7.54536C18.7038 7.79527 18.7134 8.38027 18.7214 8.94598C18.7295 9.48839 18.7383 10.0485 18.9408 10.5387C19.1521 11.0489 19.5507 11.4644 19.9356 11.8662C20.3205 12.2679 20.7143 12.6786 20.7143 13C20.7143 13.3214 20.3189 13.7353 19.9356 14.1338ZM16.6691 10.6166C16.7289 10.6763 16.7763 10.7472 16.8086 10.8253C16.841 10.9033 16.8576 10.9869 16.8576 11.0714C16.8576 11.1559 16.841 11.2396 16.8086 11.3176C16.7763 11.3956 16.7289 11.4665 16.6691 11.5263L12.1691 16.0262C12.1094 16.086 12.0385 16.1334 11.9605 16.1658C11.8824 16.1981 11.7988 16.2148 11.7143 16.2148C11.6298 16.2148 11.5462 16.1981 11.4681 16.1658C11.3901 16.1334 11.3192 16.086 11.2595 16.0262L9.33089 14.0977C9.21027 13.9771 9.1425 13.8134 9.1425 13.6429C9.1425 13.4723 9.21027 13.3087 9.33089 13.188C9.45152 13.0674 9.61512 12.9996 9.78571 12.9996C9.95631 12.9996 10.1199 13.0674 10.2405 13.188L11.7143 14.6626L15.7595 10.6166C15.8192 10.5568 15.8901 10.5094 15.9681 10.4771C16.0462 10.4447 16.1298 10.4281 16.2143 10.4281C16.2988 10.4281 16.3824 10.4447 16.4605 10.4771C16.5385 10.5094 16.6094 10.5568 16.6691 10.6166Z" fill="currentColor"/>
</svg>
